Mono16condensed.sfdir
StartChar: quotedbl
Encoding: 34 34 57
Width: 896
VWidth: 0
Flags: W
HStem: 1024 640<256 384 512 640>
VStem: 256 128<1024 1664> 512 128<1024 1664>
LayerCount: 5
Back
Fore
SplineSet
256 1664 m 1
 384 1664 l 1
 384 1024 l 1
 256 1024 l 1
 256 1664 l 1
512 1664 m 1
 640 1664 l 1
 640 1024 l 1
 512 1024 l 1
 512 1664 l 1
EndSplineSet
Layer: 2
Layer: 3
Layer: 4
EndChar
StartChar: numbersign
Encoding: 35 35 58
Width: 896
VWidth: 0
Flags: W
HStem: 0 21G<106 237.216 490 621.216> 388 120<0 123 278 507 662 896> 908 120<0 234 389 618 773 896> 1396 20G<274.784 406 658.784 790>
VStem: 123 128<508 660.227> 261 128<755.773 908> 507 128<508 660.227> 645 128<755.773 908>
LayerCount: 5
Back
SplineSet
640 -380 m 29
 896 1916 l 1053
256 -380 m 29
 512 1916 l 1053
1024 1148 m 5
 1024 1028 l 5
 128 1028 l 5
 128 1148 l 5
 1024 1148 l 5
1024 508 m 5
 1024 388 l 5
 128 388 l 5
 128 508 l 5
 1024 508 l 5
EndSplineSet
Fore
SplineSet
645 908 m 1
 389 908 l 1
 389 762 251 654 251 508 c 1
 507 508 l 1
 507 654 645 762 645 908 c 1
773 908 m 1
 773 762 635 654 635 508 c 1
 896 508 l 1
 896 388 l 1
 662 388 l 1
 619 0 l 1
 490 0 l 1
 533 388 l 1
 278 388 l 1
 235 0 l 1
 106 0 l 1
 149 388 l 1
 0 388 l 1
 0 508 l 1
 123 508 l 1
 123 654 261 762 261 908 c 1
 0 908 l 1
 0 1028 l 1
 234 1028 l 1
 277 1416 l 1
 406 1416 l 1
 363 1028 l 1
 618 1028 l 1
 661 1416 l 1
 790 1416 l 1
 747 1028 l 1
 896 1028 l 1
 896 908 l 1
 773 908 l 1
EndSplineSet
Layer: 2
Layer: 3
Layer: 4
EndChar
StartChar: quotesingle
Encoding: 39 39 62
Width: 896
VWidth: 0
Flags: W
HStem: 1024 640<384 512>
VStem: 384 128<1024 1664>
LayerCount: 5
Back
Fore
SplineSet
384 1664 m 1
 512 1664 l 1
 512 1024 l 1
 384 1024 l 1
 384 1664 l 1
EndSplineSet
Layer: 2
Layer: 3
Layer: 4
EndChar
StartChar: zero
Encoding: 48 48 70
Width: 896
VWidth: 0
Flags: W
HStem: -18 124<340.706 555.294> 640 128<384 512> 1302 124<340.706 555.294>
VStem: 125 124<240.586 1167.41> 384 128<640 768> 647 124<240.586 1167.41>
CounterMasks: 1 fc
LayerCount: 5
Back
Fore
SplineSet
448 1302 m 4
 358.204101562 1302 304.208984375 1232.04296875 276 1144 c 4
 249 1059.72949219 249 893.279296875 249 704 c 4
 249 514.720703125 249 348.270507812 276 264 c 4
 304.208984375 175.95703125 358.204101562 106 448 106 c 4
 537.795898438 106 591.791015625 175.95703125 620 264 c 4
 647 348.270507812 647 514.720703125 647 704 c 4
 647 893.279296875 647 1059.72949219 620 1144 c 4
 591.791015625 1232.04296875 537.795898438 1302 448 1302 c 4
  Spiro
    448 1302 o
    369.834 1280.64 o
    313.129 1224.02 o
    276 1144 o
    257.012 1034.67 o
    249.997 883.304 o
    249 704 o
    249.997 524.696 o
    257.012 373.333 o
    276 264 o
    313.129 183.977 o
    369.834 127.357 o
    448 106 o
    526.166 127.357 o
    582.871 183.977 o
    620 264 o
    638.988 373.333 o
    646.003 524.696 o
    647 704 o
    646.003 883.304 o
    638.988 1034.67 o
    620 1144 o
    582.871 1224.02 o
    526.166 1280.64 o
    0 0 z
  EndSpiro
448 1426 m 4
 612.506835938 1426 692.091796875 1315.24902344 732 1209 c 4
 771 1105.16992188 771 925.756835938 771 704 c 4
 771 482.243164062 771 302.830078125 732 199 c 4
 692.091796875 92.7509765625 612.506835938 -18 448 -18 c 4
 283.493164062 -18 203.908203125 92.7509765625 164 199 c 4
 125 302.830078125 125 482.243164062 125 704 c 4
 125 925.756835938 125 1105.16992188 164 1209 c 4
 203.908203125 1315.24902344 283.493164062 1426 448 1426 c 4
  Spiro
    448 1426 o
    585.762 1393.41 o
    677.262 1312.38 o
    732 1209 o
    759.427 1081.36 o
    769.56 910.221 o
    771 704 o
    769.56 497.779 o
    759.427 326.643 o
    732 199 o
    677.262 95.6154 o
    585.762 14.5874 o
    448 -18 o
    310.238 14.5874 o
    218.738 95.6154 o
    164 199 o
    136.573 326.643 o
    126.44 497.779 o
    125 704 o
    126.44 910.221 o
    136.573 1081.36 o
    164 1209 o
    218.738 1312.38 o
    310.238 1393.41 o
    0 0 z
  EndSpiro
384 768 m 5
 512 768 l 5
 512 640 l 5
 384 640 l 5
 384 768 l 5
  Spiro
    384 768 v
    512 768 v
    512 640 v
    384 640 v
    0 0 z
  EndSpiro
EndSplineSet
Layer: 2
SplineSet
456 1492 m 0
 497.450195312 1492 538.827148438 1480.85839844 574.750976562 1460.17773438 c 0
 610.673828125 1439.49707031 640.947265625 1409.38769531 662.803710938 1374.16796875 c 0
 684.659179688 1338.94726562 698.044921875 1298.87890625 704.862304688 1257.9921875 c 0
 711.680664062 1217.10644531 712 1175.45019531 712 1134 c 2
 712 402 l 2
 712 360.549804688 711.680664062 318.893554688 704.862304688 278.0078125 c 0
 698.044921875 237.12109375 684.659179688 197.052734375 662.803710938 161.83203125 c 0
 640.947265625 126.612304688 610.673828125 96.5029296875 574.750976562 75.822265625 c 0
 538.827148438 55.1416015625 497.450195312 44 456 44 c 0
 414.549804688 44 373.172851562 55.1416015625 337.249023438 75.822265625 c 0
 301.326171875 96.5029296875 271.052734375 126.612304688 249.196289062 161.83203125 c 0
 227.340820312 197.052734375 213.955078125 237.12109375 207.137695312 278.0078125 c 0
 200.319335938 318.893554688 200 360.549804688 200 402 c 2
 200 1134 l 2
 200 1175.45019531 200.319335938 1217.10644531 207.137695312 1257.9921875 c 0
 213.955078125 1298.87890625 227.340820312 1338.94726562 249.196289062 1374.16796875 c 0
 271.052734375 1409.38769531 301.326171875 1439.49707031 337.249023438 1460.17773438 c 0
 373.172851562 1480.85839844 414.549804688 1492 456 1492 c 0
  Spiro
    456 1492 o
    712 1134 [
    712 402 ]
    456 44 o
    200 402 [
    200 1134 ]
    0 0 z
  EndSpiro
EndSplineSet
Layer: 3
Layer: 4
EndChar
StartChar: one
Encoding: 49 49 71
Width: 896
VWidth: 0
Flags: W
HStem: 0 21G<512 640> 1388 20G<504.517 640>
VStem: 512 128<0 1246>
LayerCount: 5
Back
Fore
SplineSet
532 1408 m 1
 640 1408 l 1
 640 0 l 1
 512 0 l 1
 512 1246 l 1
 502 1246 l 1
 128 976 l 1
 128 1114 l 1
 532 1408 l 1
EndSplineSet
Layer: 2
Layer: 3
Layer: 4
EndChar
StartChar: six
Encoding: 54 54 76
Width: 896
VWidth: 0
Flags: W
HStem: -16 120<332.619 595.482> 792 120<338.537 595.905> 1304 120<346.773 637.586>
VStem: 128 128<188.891 707.109 787 1205.98> 672 128<188.488 707.747>
LayerCount: 5
Back
SplineSet
592 912 m 0
 617.671875 912 644.256835938 910.009765625 671.141601562 904.721679688 c 0
 722.181640625 894.681640625 771.48046875 872.155273438 811.596679688 836.797851562 c 0
 851.458007812 801.662109375 878.836914062 757.490234375 896.06640625 711.578125 c 0
 929.887695312 621.454101562 928 529.596679688 928 448 c 0
 928 366.403320312 929.887695312 274.546875 896.065429688 184.420898438 c 0
 878.837890625 138.51171875 851.456054688 94.3359375 811.59765625 59.203125 c 0
 771.48046875 23.8427734375 722.178710938 1.318359375 671.143554688 -8.7216796875 c 0
 644.25390625 -14.0107421875 617.672851562 -16 592 -16 c 0
 566.328125 -16 539.743164062 -14.009765625 512.858398438 -8.7216796875 c 0
 461.819335938 1.318359375 412.51953125 23.8427734375 372.40234375 59.2021484375 c 0
 332.54296875 94.3369140625 305.163085938 138.510742188 287.93359375 184.421875 c 0
 254.112304688 274.545898438 256 366.403320312 256 448 c 0
 256 529.596679688 254.112304688 621.453125 287.934570312 711.579101562 c 0
 305.162109375 757.48828125 332.543945312 801.6640625 372.40234375 836.796875 c 0
 412.520507812 872.15625 461.819335938 894.681640625 512.856445312 904.721679688 c 0
 539.74609375 910.010742188 566.327148438 912 592 912 c 0
  Spiro
    592 912 o
    617.927 911.29 o
    644.406 908.956 o
    671.142 904.722 o
    721.277 890.525 o
    768.741 867.864 o
    811.597 836.798 o
    847.352 798.961 o
    875.392 756.596 o
    896.066 711.578 o
    919.363 621.41 o
    927.24 532.486 o
    928 448 o
    927.24 363.515 o
    919.363 274.59 o
    896.065 184.421 o
    875.391 139.404 o
    847.351 97.0392 o
    811.598 59.2031 o
    768.74 28.1352 o
    721.276 5.47444 o
    671.144 -8.72168 o
    644.406 -12.9561 o
    617.927 -15.2898 o
    592 -16 o
    566.073 -15.2896 o
    539.594 -12.9557 o
    512.858 -8.72168 o
    462.724 5.4744 o
    415.259 28.135 o
    372.402 59.2021 o
    336.648 97.0392 o
    308.609 139.404 o
    287.934 184.422 o
    264.637 274.59 o
    256.76 363.514 o
    256 448 o
    256.76 532.485 o
    264.637 621.41 o
    287.935 711.579 o
    308.609 756.596 o
    336.649 798.961 o
    372.402 836.797 o
    415.26 867.864 o
    462.723 890.525 o
    512.856 904.722 o
    539.594 908.956 o
    566.073 911.29 o
    0 0 z
  EndSpiro
592 792 m 0
 573.422851562 792 555.671875 790.530273438 539.143554688 787.279296875 c 0
 509.518554688 781.451171875 481.633789062 768.3671875 460.080078125 749.37109375 c 0
 438.268554688 730.14453125 420.333984375 702.810546875 408.678710938 671.752929688 c 0
 384.733398438 607.946289062 384 530.818359375 384 448 c 0
 384 365.181640625 384.733398438 288.0546875 408.6796875 224.24609375 c 0
 420.333007812 193.190429688 438.26953125 165.854492188 460.080078125 146.629882812 c 0
 481.634765625 127.630859375 509.518554688 114.548828125 539.141601562 108.720703125 c 0
 555.674804688 105.46875 573.421875 104 592 104 c 0
 610.577148438 104 628.328125 105.469726562 644.856445312 108.720703125 c 0
 674.483398438 114.548828125 702.365234375 127.630859375 723.919921875 146.629882812 c 0
 745.731445312 165.85546875 763.666015625 193.189453125 775.321289062 224.247070312 c 0
 799.266601562 288.053710938 800 365.181640625 800 448 c 0
 800 530.818359375 799.266601562 607.9453125 775.3203125 671.75390625 c 0
 763.666992188 702.809570312 745.729492188 730.146484375 723.920898438 749.369140625 c 0
 702.365234375 768.368164062 674.48046875 781.451171875 644.858398438 787.279296875 c 0
 628.325195312 790.53125 610.578125 792 592 792 c 0
  Spiro
    592 792 o
    573.731 791.5 o
    556.047 789.946 o
    539.144 787.279 o
    510.297 779.093 o
    483.549 766.332 o
    460.08 749.371 o
    439.669 727.629 o
    422.323 701.379 o
    408.679 671.753 o
    391.649 603.86 o
    385.074 528.561 o
    384 448 o
    385.074 367.439 o
    391.649 292.14 o
    408.68 224.246 o
    422.323 194.621 o
    439.669 168.371 o
    460.08 146.63 o
    483.549 129.668 o
    510.296 116.907 o
    539.142 108.721 o
    556.048 106.054 o
    573.731 104.5 o
    592 104 o
    610.269 104.5 o
    627.953 106.054 o
    644.856 108.721 o
    673.704 116.907 o
    700.451 129.668 o
    723.92 146.63 o
    744.331 168.372 o
    761.677 194.621 o
    775.321 224.247 o
    792.351 292.14 o
    798.926 367.439 o
    800 448 o
    798.926 528.561 o
    792.351 603.86 o
    775.32 671.754 o
    761.677 701.379 o
    744.331 727.629 o
    723.921 749.369 o
    700.451 766.332 o
    673.703 779.093 o
    644.858 787.279 o
    627.952 789.946 o
    610.269 791.5 o
    0 0 z
  EndSpiro
EndSplineSet
Fore
SplineSet
484 912 m 0
 632 912 729 829 772 712 c 0
 800 635 800 550 800 448 c 0
 800 366 800 271 768 184 c 0
 725 67 622 -16 464 -16 c 0
 306 -16 204 67 160 184 c 0
 135 251 128 321 128 415 c 2
 128 992 l 2
 128 1052 128 1163 189 1265 c 0
 244 1357 340 1424 488 1424 c 0
 538 1424 589 1418 640 1409 c 1
 640 1287 l 1
 588 1296 536 1304 488 1304 c 0
 392 1304 337 1265 300 1206 c 0
 256 1135 256 1039 256 992 c 2
 256 787 l 1
 266 787 l 1
 321 872 386 912 484 912 c 0
672 448 m 0
 672 635 651 792 464 792 c 0
 277 792 256 635 256 448 c 0
 256 261 277 104 464 104 c 0
 651 104 672 261 672 448 c 0
EndSplineSet
Layer: 2
SplineSet
592 852 m 4
 569.874950019 852 547.708987409 850.270562295 526 846 c 4
 485.669098677 838.066160283 447.076701406 820.262547848 416.241313788 793.083396194 c 4
 385.40592617 765.904244539 362.748306891 730.14912327 348.306511624 691.665854651 c 4
 319.422921089 614.699317412 319.999999999 530.20772261 320 448 c 4
 320 365.79227739 319.422921091 281.300682587 348.306511626 204.334145348 c 4
 362.748306893 165.850876729 385.405926172 130.09575546 416.241313789 102.916603806 c 4
 447.076701407 75.7374521517 485.669098677 57.9338397167 526 50 c 4
 547.708987409 45.7294377049 569.874950019 44 592 44 c 4
 614.125049981 44 636.291012591 45.7294377049 658 50 c 4
 698.330901323 57.9338397167 736.923298594 75.7374521519 767.758686212 102.916603806 c 4
 798.59407383 130.095755461 821.251693109 165.85087673 835.693488376 204.334145349 c 4
 864.577078911 281.300682588 864.000000001 365.79227739 864 448 c 4
 864 530.20772261 864.577078909 614.699317413 835.693488374 691.665854652 c 4
 821.251693107 730.149123271 798.594073828 765.90424454 767.758686211 793.083396194 c 4
 736.923298593 820.262547848 698.330901323 838.066160283 658 846 c 4
 636.291012591 850.270562295 614.125049981 852 592 852 c 4
  Spiro
    592 852 o
    526 846 o
    320 448 o
    526 50 o
    592 44 o
    658 50 o
    864 448 o
    658 846 o
    0 0 z
  EndSpiro
EndSplineSet
Layer: 3
Layer: 4
EndChar
StartChar: E
Encoding: 69 69 33
Width: 896
VWidth: 0
Flags: W
HStem: 0 120<256 896> 644 120<256 768> 1288 120<256 896>
VStem: 128 128<120 644 764 1288>
CounterMasks: 1 e0
LayerCount: 5
Back
Fore
SplineSet
128 1408 m 1
 896 1408 l 1
 896 1288 l 1
 256 1288 l 1
 256 764 l 1
 768 764 l 1
 768 644 l 1
 256 644 l 1
 256 120 l 1
 896 120 l 1
 896 0 l 1
 128 0 l 1
 128 1408 l 1
EndSplineSet
Layer: 2
Layer: 3
Layer: 4
EndChar
StartChar: w
Encoding: 119 119 22
Width: 896
VWidth: 0
Flags: W
HStem: 0 21G<149 278.107 617.893 747> 1003 21G<8 139 381.966 514.034 757 888>
VStem: 8 131<559.059 1024> 757 131<559.059 1024>
LayerCount: 5
Back
SplineSet
1138 1124 m 5
 896 14 l 5
 640 1009 l 5
 384 14 l 5
 142 1124 l 1029
EndSplineSet
Fore
SplineSet
386 1023 m 1
 510 1023 l 1
 674 210 l 5
 684 210 l 5
 750 461 757 741 757 1024 c 1
 888 1024 l 1
 888 681 840 340 747 2 c 5
 622 0 l 5
 453 823 l 1
 443 823 l 1
 274 0 l 1
 149 2 l 1
 56 340 8 681 8 1024 c 1
 139 1024 l 1
 139 741 146 461 212 210 c 1
 222 210 l 1
 386 1023 l 1
EndSplineSet
Layer: 2
SplineSet
1182 1024 m 5
 959 2 l 5
 834 -0 l 5
 640 753 l 5
 446 -0 l 5
 321 2 l 5
 98 1024 l 5
 229 1024 l 5
 389 290 l 5
 578 1023 l 5
 702 1023 l 5
 891 290 l 5
 1051 1024 l 5
 1182 1024 l 5
EndSplineSet
Layer: 3
Layer: 4
EndChar
StartChar: x
Encoding: 120 120 23
Width: 896
VWidth: 0
Flags: W
HStem: 0 21G<31 209.427 686.573 865> 1004 20G<53 231.737 664.263 843>
LayerCount: 5
Back
SplineSet
1152 -144 m 5
 128 1196 l 1029
128 -144 m 5
 1152 1196 l 1029
EndSplineSet
Fore
SplineSet
443 644 m 1
 453 644 l 1
 676 1024 l 1
 843 1024 l 1
 522 561 l 1
 522 551 l 1
 865 0 l 1
 697 0 l 1
 453 468 l 1
 443 468 l 1
 199 0 l 1
 31 0 l 1
 374 551 l 1
 374 561 l 1
 53 1024 l 1
 220 1024 l 1
 443 644 l 1
EndSplineSet
Layer: 2
SplineSet
640 629.024738312 m 5
 941.831841768 1024 l 5
 1099.29046996 1024 l 5
 718.729175425 526.000231408 l 5
 1120.68756122 0 l 5
 963.229503306 0 l 5
 640 422.975799586 l 5
 316.770496694 0 l 5
 159.312438783 0 l 5
 561.270824575 526.000231408 l 5
 180.709530037 1024 l 5
 338.168158232 1024 l 5
 640 629.024738312 l 5
EndSplineSet
Layer: 3
Layer: 4
EndChar
StartChar: y
Encoding: 121 121 24
Width: 896
VWidth: 0
Flags: W
HStem: -528 120<128 264.5> 1004 20G<73 225 675 823>
VStem: 73 135<727.078 1024> 688 135<712.23 1024>
LayerCount: 5
Back
SplineSet
201 1024 m 1
 336 1024 l 1
 366 667.231213873 442 363.820809249 571 119 c 1
 581 119 l 1
 710 363.821289062 786 667.231445312 816 1024 c 1
 951 1024 l 1
 919.984375 663 832.75390625 318 636 0 c 1
 516 0 l 1
 319.246153846 318 232.015384615 663 201 1024 c 1
  Spiro
    201 1024 v
    336 1024 v
    381.531 685.532 o
    459.502 382.874 o
    571 119 v
    581 119 v
    692.498 382.874 o
    770.469 685.532 o
    816 1024 v
    951 1024 v
    899.346 669.09 o
    798.091 326.258 o
    636 0 v
    516 0 v
    353.909 326.258 o
    252.654 669.09 o
    0 0 z
  EndSpiro
EndSplineSet
Fore
SplineSet
73 1024 m 1
 208 1024 l 1
 242 675 328 378 473 139 c 1
 483 139 l 1
 596 378 662 675 688 1024 c 1
 823 1024 l 1
 789 679 719 364 572 24 c 2
 397 -380 l 2
 388 -401 378 -426 358 -451 c 0
 309 -511 234 -528 129 -528 c 2
 128 -528 l 1
 128 -408 l 1
 129 -408 l 2
 186 -408 232 -409 256 -378 c 0
 263 -369 271 -355 279 -336 c 2
 424 0 l 1
 195 328 108 663 73 1024 c 1
EndSplineSet
Layer: 2
SplineSet
391 -728 m 5
 391 -728 1005.36170213 962.091816367 1216 1536 c 1029
  Spiro
    391 -728 {
    557.788 -269.387 o
    908.89 694.973 o
    1216 1536 v
    0 0 z
  EndSpiro
653 5 m 5
 64 1536 l 1029
  Spiro
    653 5 {
    64 1536 v
    0 0 z
  EndSpiro
EndSplineSet
Layer: 3
SplineSet
596 -54 m 1
 466 -358 l 2
 457.563898426 -377.727499064 448.453103785 -397.460990346 434.85359019 -414.056027528 c 0
 421.254076596 -430.65106471 403.53896582 -443.783312939 383.822117037 -452.244276427 c 0
 364.105268254 -460.705239913 342.71200732 -464.662751865 321.32882854 -466.42391464 c 0
 299.94564976 -468.185077414 278.455582701 -468.000000003 257 -468 c 2
 256 -468 l 1025
  Spiro
    596 -54 {
    466 -358 ]
    257 -468 [
    256 -468 o
    0 0 z
  EndSpiro
EndSplineSet
Layer: 4
EndChar
StartChar: tilde
Encoding: 126 126 94
Width: 896
VWidth: 0
Flags: W
HStem: 510 120<553.133 721.817> 778 120<175.431 341.867>
VStem: 7 128<571 716.209> 761 128<691.792 838>
LayerCount: 5
Back
SplineSet
189 120 m 5
 175.139648438 181.705078125 166.125 245.524414062 166.125 308.819335938 c 4
 166.125 363.505859375 172.854492188 417.799804688 189 470 c 4
 203.345703125 516.379882812 227.016601562 560.76171875 262.752929688 593.622070312 c 4
 298.495117188 626.48828125 346.45703125 645.997070312 395.01953125 646 c 4
 427.842773438 646 460.301757812 637.59765625 490.37890625 624.45703125 c 4
 520.462890625 611.314453125 548.31640625 593.645507812 576 576 c 4
 603.68359375 558.354492188 631.537109375 540.685546875 661.62109375 527.54296875 c 4
 691.698242188 514.40234375 724.157226562 506 756.98046875 506 c 4
 805.54296875 506.002929688 853.504882812 525.51171875 889.247070312 558.377929688 c 4
 924.983398438 591.23828125 948.654296875 635.620117188 963 682 c 4
 979.145507812 734.200195312 985.875 788.494140625 985.875 843.180664062 c 4
 985.875 906.475585938 976.860351562 970.294921875 963 1032 c 5
 189 120 l 5
  Spiro
    189 120 v
    189 470 o
    395 646 o
    757 506 o
    963 682 o
    963 1032 v
    0 0 z
  EndSpiro
EndSplineSet
Fore
SplineSet
135 571 m 1
 7 571 l 1
 7 635 13 707 51 774 c 0
 87 838 159 898 256 898 c 0
 482 898 497 630 639 630 c 4
 683 630 714 658 732 690 c 4
 754 728 761 781 761 838 c 5
 889 838 l 5
 889 774 883 701 845 634 c 4
 809 570 735 510 639 510 c 4
 413 510 398 778 256 778 c 0
 212 778 182 750 164 718 c 0
 142 680 135 628 135 571 c 1
EndSplineSet
Layer: 2
Layer: 3
Layer: 4
EndChar
StartChar: Aacute
Encoding: 193 193 104
Width: 896
VWidth: 0
Flags: W
HStem: 0 21G<5 145 751 891> 388 120<206 690> 1161 119<422.442 473.558>
LayerCount: 5
Back
Fore
SplineSet
5 0 m 1
 46 451 131 882 388 1280 c 1
 508 1280 l 1
 765 882 850 451 891 0 c 5
 756 0 l 5
 746 136 733 265 716 388 c 5
 180 388 l 1
 163 265 150 136 140 0 c 1
 5 0 l 1
690 508 m 5
 639 752 565 970 453 1161 c 1
 443 1161 l 1
 331 970 257 752 206 508 c 1
 690 508 l 5
360 1408 m 1
 498 1408 l 1
 664 1664 l 1
 526 1664 l 1
 360 1408 l 1
EndSplineSet
Layer: 2
Layer: 3
Layer: 4
EndChar
StartChar: Egrave
Encoding: 200 200 109
Width: 896
VWidth: 0
Flags: W
HStem: 0 120<256 896> 644 120<256 768> 1160 120<256 896> 1408 21G<385.031 536>
VStem: 128 128<120 644 764 1160>
LayerCount: 5
Back
Fore
SplineSet
128 1280 m 1
 896 1280 l 1
 896 1160 l 1
 256 1160 l 1
 256 764 l 1
 768 764 l 1
 768 644 l 1
 256 644 l 1
 256 120 l 1
 896 120 l 1
 896 0 l 1
 128 0 l 1
 128 1280 l 1
536 1408 m 1
 398 1408 l 1
 232 1664 l 1
 370 1664 l 1
 536 1408 l 1
EndSplineSet
Layer: 2
Layer: 3
Layer: 4
EndChar
StartChar: Idieresis
Encoding: 207 207 116
Width: 896
VWidth: 0
Flags: W
HStem: 0 120<128 384 512 768> 1160 120<128 384 512 768> 1456 224<133.032 314.968 581.032 762.968>
VStem: 112 224<1477.03 1658.97> 384 128<120 1160> 560 224<1477.03 1658.97>
CounterMasks: 1 1c
LayerCount: 5
Back
Fore
SplineSet
768 1280 m 1
 768 1160 l 1
 512 1160 l 1
 512 120 l 1
 768 120 l 1
 768 0 l 1
 128 0 l 1
 128 120 l 1
 384 120 l 1
 384 1160 l 1
 128 1160 l 1
 128 1280 l 1
 768 1280 l 1
672 1680 m 0
 738 1680 784 1634 784 1568 c 0
 784 1502 738 1456 672 1456 c 0
 606 1456 560 1502 560 1568 c 0
 560 1634 606 1680 672 1680 c 0
224 1680 m 0
 290 1680 336 1634 336 1568 c 0
 336 1502 290 1456 224 1456 c 0
 158 1456 112 1502 112 1568 c 0
 112 1634 158 1680 224 1680 c 0
EndSplineSet
Layer: 2
Layer: 3
Layer: 4
EndChar
StartChar: aring
Encoding: 229 229 138
Width: 896
VWidth: 0
Flags: W
HStem: -16 120<288.403 532.71> 0 21G<640 768> 512 110<290.102 640> 920 120<196.593 610.851> 1136 100<363.338 532.662> 1452 100<363.338 532.662>
VStem: 96 128<169.682 443.733> 240 108<1249.57 1438.43> 548 108<1249.57 1438.43> 640 128<0 123 195.803 512 622 892.213>
LayerCount: 5
Back
Fore
SplineSet
448 1552 m 0x3f80
 571 1552 656 1458 656 1344 c 0
 656 1230 571 1136 448 1136 c 0
 325 1136 240 1230 240 1344 c 0
 240 1458 325 1552 448 1552 c 0x3f80
448 1452 m 0
 390 1452 348 1418 348 1344 c 0
 348 1270 390 1236 448 1236 c 0
 506 1236 548 1270 548 1344 c 0
 548 1418 506 1452 448 1452 c 0
480 1040 m 0
 576 1040 677 1021 738 913 c 0
 768 860 768 785 768 749 c 2
 768 0 l 1
 640 0 l 1x7f40
 640 123 l 1
 630 123 l 1
 566 35 489 -16 380 -16 c 0
 327 -16 219 10 155 106 c 0
 121 157 96 224 96 301 c 0
 96 383 121 470 184 533 c 0
 274 622 384 622 446 622 c 2
 640 622 l 1
 640 744 l 2xbf40
 640 788 640 831 622 862 c 0
 601 898 568 920 480 920 c 0
 421 920 290 906 192 891 c 1
 192 1013 l 1
 289 1027 417 1040 480 1040 c 0
640 512 m 1
 444 512 l 2
 389 512 331 512 280 458 c 0
 244 420 224 362 224 303 c 0
 224 194 297 104 404 104 c 0xbf40
 510 104 587 162 618 235 c 0
 640 287 640 349 640 421 c 2
 640 512 l 1
EndSplineSet
Layer: 2
Layer: 3
Layer: 4
EndChar
StartChar: ccedilla
Encoding: 231 231 140
Width: 896
VWidth: 0
Flags: W
HStem: -400 120<258.225 483.489> -16 120<324.037 507.959> 920 120<322.263 762.041>
VStem: 96 128<209.809 814.191> 512 128<-233.261 -14>
LayerCount: 5
Back
Fore
SplineSet
640 -105 m 6
 640 -165 640 -235 588 -305 c 4
 546 -362 474 -400 384 -400 c 4
 349 -400 303 -393 256 -383 c 5
 256 -260 l 5
 304 -271 350 -280 384 -280 c 4
 431 -280 463 -263 484 -235 c 4
 512 -198 512 -155 512 -105 c 6
 512 -14 l 5
 493 -15 475 -16 458 -16 c 4
 289 -16 183 78 136 193 c 4
 98 286 96 391 96 512 c 4
 96 633 98 738 136 831 c 4
 183 946 289 1040 458 1040 c 4
 541 1040 641 1025 768 999 c 5
 768 876 l 5
 640 903 534 920 458 920 c 4
 357 920 292 872 256 789 c 4
 224 716 224 614 224 512 c 4
 224 410 224 308 256 235 c 4
 292 152 357 104 458 104 c 4
 534 104 640 121 768 148 c 5
 768 25 l 5
 719 15 674 6 633 0 c 5
 640 0 l 5
 640 -105 l 6
EndSplineSet
Layer: 2
Layer: 3
Layer: 4
EndChar
StartChar: yacute
Encoding: 253 253 162
Width: 896
VWidth: 0
Flags: W
HStem: -528 120<128 264.5> 1004 20G<73 225 675 823>
VStem: 73 135<727.078 1024> 688 135<712.23 1024>
LayerCount: 5
Back
Fore
SplineSet
73 1024 m 1
 208 1024 l 1
 242 675 328 378 473 139 c 1
 483 139 l 1
 596 378 662 675 688 1024 c 1
 823 1024 l 1
 789 679 719 364 572 24 c 2
 397 -380 l 2
 388 -401 378 -426 358 -451 c 0
 309 -511 234 -528 129 -528 c 2
 128 -528 l 1
 128 -408 l 1
 129 -408 l 2
 186 -408 232 -409 256 -378 c 0
 263 -369 271 -355 279 -336 c 2
 424 0 l 1
 195 328 108 663 73 1024 c 1
360 1152 m 1
 498 1152 l 1
 664 1408 l 1
 526 1408 l 1
 360 1152 l 1
EndSplineSet
Layer: 2
Layer: 3
Layer: 4
EndChar
StartChar: Abreve
Encoding: 258 258 171
Width: 896
VWidth: 0
Flags: W
HStem: 0 21G<-25 115 781 921> 388 120<176 720> 1161 119<419.875 476.125> 1392 120<290.746 605.254>
VStem: 108 128<1563.69 1664> 660 128<1563.69 1664>
LayerCount: 5
Back
Fore
SplineSet
660 1664 m 1
 788 1664 l 1
 788 1496 636 1392 448 1392 c 0
 260 1392 108 1496 108 1664 c 1
 236 1664 l 1
 236 1578 305 1512 448 1512 c 0
 591 1512 660 1578 660 1664 c 1
720 508 m 1
 662 752 579 970 453 1161 c 1
 443 1161 l 1
 317 970 234 752 176 508 c 1
 720 508 l 1
-25 0 m 1
 19 451 111 882 388 1280 c 1
 508 1280 l 1
 785 882 877 451 921 0 c 1
 786 0 l 1
 776 136 763 265 746 388 c 1
 150 388 l 1
 133 265 120 136 110 0 c 1
 -25 0 l 1
EndSplineSet
Layer: 2
Layer: 3
Layer: 4
EndChar
StartChar: edotaccent
Encoding: 279 279 190
Width: 896
VWidth: 0
Flags: W
HStem: -16 120<322.263 762.041> 512 120<227 669> 920 120<318.155 577.845> 1200 224<357.032 538.968>
VStem: 96 128<210.579 512 632 813.92> 336 224<1221.03 1402.97>
LayerCount: 5
Back
Fore
SplineSet
448 1424 m 0
 514 1424 560 1378 560 1312 c 0
 560 1246 514 1200 448 1200 c 0
 382 1200 336 1246 336 1312 c 0
 336 1378 382 1424 448 1424 c 0
669 632 m 1
 666 690 658 744 640 789 c 0
 608 868 544 920 448 920 c 0
 352 920 288 868 256 789 c 0
 238 744 230 690 227 632 c 1
 669 632 l 1
224 512 m 1
 224 410 224 308 256 235 c 0
 292 152 357 104 458 104 c 0
 534 104 640 121 768 148 c 1
 768 25 l 1
 641 -1 541 -16 458 -16 c 0
 289 -16 183 78 136 193 c 0
 98 286 96 391 96 512 c 0
 96 633 98 734 136 829 c 0
 182 945 288 1040 448 1040 c 0
 608 1040 714 945 760 829 c 0
 798 734 800 633 800 512 c 1
 224 512 l 1
EndSplineSet
Layer: 2
Layer: 3
Layer: 4
EndChar
StartChar: Eogonek
Encoding: 280 280 165
Width: 896
VWidth: 0
Flags: W
HStem: -400 120<651.912 894.146> 0 120<256 768> 644 120<256 768> 1288 120<256 896>
VStem: 128 128<120 644 764 1288> 512 128<-262.716 -135.229>
LayerCount: 5
Back
Fore
SplineSet
767 -280 m 0
 813 -280 857 -270 896 -260 c 1
 896 -383 l 1
 856 -391 813 -400 767 -400 c 0
 653 -400 512 -325 512 -205 c 0
 512 -57 707 -63 768 0 c 1
 128 0 l 1
 128 1408 l 1
 896 1408 l 1
 896 1288 l 1
 256 1288 l 1
 256 764 l 1
 768 764 l 1
 768 644 l 1
 256 644 l 1
 256 120 l 1
 896 120 l 1
 896 0 l 1
 855 -91 640 -103 640 -198 c 0
 640 -258 710 -280 767 -280 c 0
EndSplineSet
Layer: 2
Layer: 3
Layer: 4
EndChar
StartChar: ecaron
Encoding: 283 283 192
Width: 896
VWidth: 0
Flags: W
HStem: -16 120<322.263 762.041> 512 120<227 669> 920 120<318.155 577.845>
VStem: 96 128<210.579 512 632 813.92>
LayerCount: 5
Back
Fore
SplineSet
369 1152 m 1
 527 1152 l 1
 824 1408 l 1
 666 1408 l 1
 448 1244 l 1
 230 1408 l 1
 72 1408 l 1
 369 1152 l 1
669 632 m 1
 666 690 658 744 640 789 c 0
 608 868 544 920 448 920 c 0
 352 920 288 868 256 789 c 0
 238 744 230 690 227 632 c 1
 669 632 l 1
224 512 m 1
 224 410 224 308 256 235 c 0
 292 152 357 104 458 104 c 0
 534 104 640 121 768 148 c 1
 768 25 l 1
 641 -1 541 -16 458 -16 c 0
 289 -16 183 78 136 193 c 0
 98 286 96 391 96 512 c 0
 96 633 98 734 136 829 c 0
 182 945 288 1040 448 1040 c 0
 608 1040 714 945 760 829 c 0
 798 734 800 633 800 512 c 1
 224 512 l 1
EndSplineSet
Layer: 2
Layer: 3
Layer: 4
EndChar
StartChar: Gdotaccent
Encoding: 288 288 197
Width: 896
VWidth: 0
Flags: W
HStem: -16 120<327.52 764.627> 520 120<512 768> 1176 120<327.645 799.818> 1456 224<357.032 538.968>
VStem: 0 128<339.116 940.961> 336 224<1477.03 1658.97> 768 128<130.103 520>
CounterMasks: 1 0e
LayerCount: 5
Back
Fore
SplineSet
515 1296 m 4
 638 1296 757 1267 866 1239 c 5
 866 1115 l 5
 753 1144 627 1176 515 1176 c 4
 311 1176 200 1060 156 888 c 4
 136 810 128 727 128 640 c 4
 128 553 136 471 156 392 c 4
 199 220 311 104 515 104 c 4
 596 104 683 120 768 140 c 5
 768 520 l 5
 512 520 l 5
 512 640 l 5
 896 640 l 5
 896 49 l 5
 779 19 649 -16 515 -16 c 4
 415 -16 308 7 219 64 c 4
 126 129 63 238 31 364 c 4
 7 458 0 551 0 640 c 4
 0 729 7 822 31 916 c 4
 63 1043 126 1150 219 1216 c 4
 308 1274 415 1296 515 1296 c 4
448 1680 m 0
 514 1680 560 1634 560 1568 c 0
 560 1502 514 1456 448 1456 c 0
 382 1456 336 1502 336 1568 c 0
 336 1634 382 1680 448 1680 c 0
EndSplineSet
Layer: 2
Layer: 3
Layer: 4
EndChar
StartChar: Hcircumflex
Encoding: 292 292 222
Width: 896
VWidth: 0
Flags: W
HStem: 0 21G<0 128 768 896> 641 120<128 768> 1408 21G<72 256.585 639.415 824>
VStem: 0 128<0 641 761 1280> 768 128<0 641 761 1280>
LayerCount: 5
Back
Fore
SplineSet
369 1664 m 1
 527 1664 l 1
 824 1408 l 1
 666 1408 l 1
 448 1572 l 1
 230 1408 l 1
 72 1408 l 1
 369 1664 l 1
0 1280 m 1
 128 1280 l 1
 128 761 l 1
 768 761 l 1
 768 1280 l 1
 896 1280 l 1
 896 0 l 1
 768 0 l 1
 768 641 l 1
 128 641 l 1
 128 0 l 1
 0 0 l 1
 0 1280 l 1
EndSplineSet
Layer: 2
Layer: 3
Layer: 4
EndChar
StartChar: uni0136
Encoding: 310 310 275
Width: 896
VWidth: 0
Flags: W
HStem: -528 120<256 355.008> 0 21G<0 128 752.981 934> 1388 20G<0 128 674.457 841>
VStem: 0 128<0 578 765 1408> 384 128<-361.261 -128>
LayerCount: 5
Back
Fore
SplineSet
512 -233 m 2
 512 -293 512 -363 460 -433 c 0
 418 -490 346 -528 256 -528 c 1
 256 -408 l 1
 303 -408 335 -391 356 -363 c 0
 384 -326 384 -283 384 -233 c 2
 384 -128 l 1
 512 -128 l 1
 512 -233 l 2
128 0 m 1
 0 0 l 1
 0 1408 l 1
 128 1408 l 1
 128 765 l 1
 692 1408 l 1
 841 1408 l 1
 358 827 l 1
 934 0 l 1
 767 0 l 1
 256 729 l 1
 128 578 l 1
 128 0 l 1
EndSplineSet
Layer: 2
Layer: 3
Layer: 4
EndChar
StartChar: kgreenlandic
Encoding: 312 312 277
Width: 896
VWidth: 0
Flags: W
HStem: 0 21G<128 256 705.964 874> 1004 20G<128 256 636.815 827>
VStem: 128 128<0 435 607 1024>
LayerCount: 5
Back
Fore
SplineSet
256 0 m 1
 128 0 l 1
 128 1024 l 1
 256 1024 l 1
 256 607 l 1
 656 1024 l 1
 827 1024 l 1
 464 645 l 1
 874 0 l 1
 718 0 l 1
 381 560 l 1
 256 435 l 1
 256 0 l 1
EndSplineSet
Layer: 2
Layer: 3
Layer: 4
EndChar
StartChar: uni0146
Encoding: 326 326 243
Width: 896
VWidth: 0
Flags: W
HStem: -528 120<256 355.008> 0 21G<128 256 640 768> 920 120<343.273 576.311> 1004 20G<128 256>
VStem: 128 128<0 857.984 912 1024> 384 128<-361.261 -128> 640 128<0 854.076>
CounterMasks: 1 0e
LayerCount: 5
Back
Fore
SplineSet
512 -233 m 2xce
 512 -293 512 -363 460 -433 c 0
 418 -490 346 -528 256 -528 c 1
 256 -408 l 1
 303 -408 335 -391 356 -363 c 0
 384 -326 384 -283 384 -233 c 2
 384 -128 l 1
 512 -128 l 1
 512 -233 l 2xce
468 1040 m 0xee
 568 1040 649 995 699 933 c 0
 768 847 768 751 768 657 c 2
 768 0 l 1
 640 0 l 1
 640 657 l 2
 640 744 640 806 595 858 c 0
 563 895 512 920 448 920 c 0xee
 384 920 333 895 301 858 c 0
 256 806 256 744 256 657 c 2
 256 0 l 1
 128 0 l 1
 128 1024 l 1
 256 1024 l 1xde
 256 912 l 1
 266 912 l 1
 315 989 392 1040 468 1040 c 0xee
EndSplineSet
Layer: 2
Layer: 3
Layer: 4
EndChar
StartChar: Rcaron
Encoding: 344 344 261
Width: 896
VWidth: 0
Flags: W
HStem: 0 21G<0 128 665.584 809> 512 120<128 433> 1160 120<128 548.624>
VStem: 0 128<0 512 632 1160> 656 128<740.856 1052.75>
LayerCount: 5
Back
Fore
SplineSet
241 1408 m 1
 399 1408 l 1
 696 1664 l 1
 538 1664 l 1
 320 1500 l 1
 102 1664 l 1
 -56 1664 l 1
 241 1408 l 1
321 632 m 2
 397 632 437 634 473 642 c 0
 581 666 656 762 656 896 c 0
 656 1030 581 1126 473 1150 c 0
 437 1158 397 1160 321 1160 c 2
 128 1160 l 1
 128 632 l 1
 321 632 l 2
128 0 m 1
 0 0 l 1
 0 1280 l 1
 321 1280 l 2
 398 1280 450 1280 505 1267 c 0
 664 1229 784 1092 784 896 c 0
 784 723 690 595 558 542 c 1
 809 0 l 1
 675 0 l 1
 433 514 l 1
 400 512 365 512 321 512 c 2
 128 512 l 1
 128 0 l 1
EndSplineSet
Layer: 2
Layer: 3
Layer: 4
EndChar
StartChar: uni0162
Encoding: 354 354 271
Width: 896
VWidth: 0
Flags: W
HStem: -400 120<130.225 355.489> 1288 120<0 384 512 896>
VStem: 384 128<-233.261 1288>
LayerCount: 5
Back
Fore
SplineSet
512 -105 m 2
 512 -165 512 -235 460 -305 c 0
 418 -362 346 -400 256 -400 c 0
 221 -400 175 -393 128 -383 c 1
 128 -260 l 1
 176 -271 222 -280 256 -280 c 0
 303 -280 335 -263 356 -235 c 0
 384 -198 384 -155 384 -105 c 2
 384 0 l 1
 384 1288 l 1
 0 1288 l 1
 0 1408 l 1
 896 1408 l 1
 896 1288 l 1
 512 1288 l 1
 512 0 l 1
 512 -105 l 2
EndSplineSet
Layer: 2
Layer: 3
Layer: 4
EndChar
StartChar: umacron
Encoding: 363 363 202
Width: 896
VWidth: 0
Flags: W
HStem: -16 120<319.689 552.727> 0 21G<640 768> 1004 20G<128 256 640 768> 1156 120<128 768>
VStem: 128 128<169.924 1024> 640 128<0 112 166.016 1024>
LayerCount: 5
Back
Fore
SplineSet
128 1276 m 1x3c
 768 1276 l 1
 768 1156 l 1
 128 1156 l 1
 128 1276 l 1x3c
428 -16 m 0xbc
 328 -16 247 29 197 91 c 0
 128 177 128 273 128 367 c 2
 128 1024 l 1
 256 1024 l 1
 256 367 l 2
 256 280 256 218 301 166 c 0
 333 129 384 104 448 104 c 0xbc
 512 104 563 129 595 166 c 0
 640 218 640 280 640 367 c 2
 640 1024 l 1
 768 1024 l 1
 768 0 l 1
 640 0 l 1x7c
 640 112 l 1
 630 112 l 1
 581 35 504 -16 428 -16 c 0xbc
EndSplineSet
Layer: 2
Layer: 3
Layer: 4
EndChar
StartChar: Wcircumflex
Encoding: 372 372 211
Width: 896
VWidth: 0
Flags: W
HStem: 0 21G<129 259.136 636.864 767> 1408 21G<72 256.585 639.415 824>
VStem: 8 131<818.647 1280> 757 131<818.647 1280>
LayerCount: 5
Back
Fore
SplineSet
369 1664 m 1
 527 1664 l 1
 824 1408 l 1
 666 1408 l 1
 448 1572 l 1
 230 1408 l 1
 72 1408 l 1
 369 1664 l 1
386 896 m 1
 510 896 l 1
 684 210 l 1
 694 210 l 1
 743 540 757 908 757 1280 c 5
 888 1280 l 5
 888 851 847 425 767 2 c 1
 642 0 l 1
 453 736 l 1
 443 736 l 1
 254 0 l 1
 129 2 l 1
 49 425 8 851 8 1280 c 1
 139 1280 l 1
 139 908 153 540 202 210 c 1
 212 210 l 1
 386 896 l 1
EndSplineSet
Layer: 2
Layer: 3
Layer: 4
EndChar
StartChar: zdotaccent
Encoding: 380 380 219
Width: 896
VWidth: 0
Flags: W
HStem: 0 120<273 768> 904 120<148 603> 1200 224<357.032 538.968>
VStem: 336 224<1221.03 1402.97>
LayerCount: 5
Back
Fore
SplineSet
448 1424 m 0
 514 1424 560 1378 560 1312 c 0
 560 1246 514 1200 448 1200 c 0
 382 1200 336 1246 336 1312 c 0
 336 1378 382 1424 448 1424 c 0
148 904 m 1
 148 1024 l 1
 748 1024 l 1
 748 934 l 1
 273 130 l 1
 273 120 l 1
 768 120 l 1
 768 0 l 1
 128 0 l 1
 128 92 l 1
 603 894 l 1
 603 904 l 1
 148 904 l 1
EndSplineSet
Layer: 2
Layer: 3
Layer: 4
EndChar
StartChar: uni0315
Encoding: 789 789 307
Width: 896
VWidth: 0
Flags: W
HStem: 1024 640<384 512>
VStem: 384 128<1024 1664>
LayerCount: 5
Back
Fore
SplineSet
384 1664 m 5
 512 1664 l 1
 512 1024 l 5
 384 1024 l 5
 384 1664 l 5
EndSplineSet
Layer: 2
Layer: 3
Layer: 4
EndChar
StartChar: NameMe.1114117
Encoding: 1114117 -1 325
Width: 896
VWidth: 0
Flags: WO
HStem: 0 120<128 384 512 768> 1065 21G<128 155.182>
VStem: 384 128<120 1246>
LayerCount: 5
Back
SplineSet
404 1408 m 1
 512 1408 l 1
 512 120 l 1
 768 120 l 1
 768 0 l 1
 512 0 l 1
 384 0 l 1
 128 0 l 1
 128 120 l 1
 384 120 l 1
 384 1246 l 1
 374 1246 l 1
 128 1065 l 1
 128 1203 l 1
 404 1408 l 1
EndSplineSet
Fore
SplineSet
532 1408 m 5
 640 1408 l 5
 640 0 l 5
 512 0 l 5
 512 1246 l 5
 502 1246 l 5
 128 976 l 5
 128 1114 l 5
 532 1408 l 5
EndSplineSet
Layer: 2
Layer: 3
Layer: 4
EndChar
StartChar: at.alt
Encoding: 1114115 -1 323
Width: 896
VWidth: 0
Flags: W
HStem: 0 120<262.985 896> 368 120<448.403 674.062> 896 110<450.102 768> 1288 120<265.967 690.423>
VStem: 0 128<258.128 1149.86> 256 128<553.682 827.808> 768 128<384 507 577.512 896 1006 1211.56>
LayerCount: 5
Back
SplineSet
832 743 m 5
 832 1016 l 6
 832 1061.71916915 831.378588224 1107.92809738 820.26973628 1152.27712032 c 4
 809.160884336 1196.62614327 787.286228543 1238.62955948 754.95789401 1270.95789401 c 4
 722.629559477 1303.28622855 680.626143262 1325.16088434 636.277120322 1336.26973628 c 4
 591.928097381 1347.37858822 545.719169145 1348 500 1348 c 6
 499 1348 l 6
 439.096871752 1348 378.55204108 1347.18580084 320.444134515 1332.63052796 c 4
 262.33622795 1318.07525508 207.301631403 1289.41418499 164.943723204 1247.05627679 c 4
 122.585815007 1204.69836859 93.9247449184 1149.66377205 79.3694720407 1091.55586548 c 4
 64.8141991631 1033.44795892 63.9999999994 972.903128247 64 913 c 6
 64 646 l 1029
  Spiro
    832 743 {
    832 1016 ]
    500 1348 [
    499 1348 ]
    64 913 [
    64 646 v
    0 0 z
  EndSpiro
EndSplineSet
Fore
SplineSet
768 805 m 6
 768 896 l 5
 604 896 l 6
 549 896 491.083272506 895.92123209 440 842 c 4
 404 804 384 746 384 687 c 4
 384 578 457 488 564 488 c 4
 654 488 715.967374495 548.013794261 746 619 c 4
 768 671 768 733 768 805 c 6
768 1006 m 5
 768 1054.42589977 767.65697016 1100.37211936 758 1139 c 4
 740 1211 692.920594459 1258.6974897 620 1278 c 4
 586 1287 545 1288 499 1288 c 4
 440 1288 384.951268933 1287.18927174 338 1275 c 4
 234 1248 167.718677468 1179.81942699 141 1075 c 4
 128 1024 128 972 128 913 c 6
 128 495 l 6
 128 436 128.349673261 384.087857984 141 333 c 4
 167 228 233.892057635 159.580751242 338 133 c 4
 385 121 440 120 499 120 c 6
 896 120 l 5
 896 0 l 5
 499 0 l 6
 439 0 373.056010408 0.225631237525 305 17 c 4
 163 52 53.01412028 152.003371327 16 307 c 4
 0 374 -3.61270805748e-15 436 0 495 c 6
 0 913 l 6
 -3.61270805748e-15 972 0.00610373768048 1033.99854268 16 1101 c 4
 53 1256 163.116866649 1355.52921666 305 1391 c 4
 373 1408 439 1408 499 1408 c 4
 546 1408 597.995950206 1407.98408046 653 1394 c 4
 771 1364 853.529176941 1281.88329224 883 1164 c 4
 896 1112 896 1061 896 1016 c 6
 896 384 l 5
 768 384 l 5
 768 507 l 5
 758 507 l 5
 702 419 635 368 540 368 c 4
 487 368 379 394 315 490 c 4
 281 541 256 608 256 685 c 4
 256 767 280.649033277 854.352932907 344 917 c 4
 434 1006 544 1006 606 1006 c 6
 768 1006 l 5
EndSplineSet
Layer: 2
Layer: 3
Layer: 4
EndChar
StartChar: l.alt
Encoding: 1114118 -1 326
Width: 896
VWidth: 0
Flags: W
HStem: -16 120<540.725 766.027> 1416 120<128 384>
VStem: 384 128<149.787 1416>
LayerCount: 5
Back
Fore
SplineSet
768 -2 m 5
 725 -9 680 -16 630 -16 c 4
 558 -16 499 9 457 52 c 4
 384 128 384 218 384 279 c 6
 384 1416 l 5
 128 1416 l 5
 128 1536 l 5
 384 1536 l 5
 512 1536 l 5
 512 279 l 6
 512 232 512 186 540 148 c 4
 560 121 591 104 640 104 c 4
 677 104 727 113 768 121 c 5
 768 -2 l 5
EndSplineSet
Layer: 2
Layer: 3
Layer: 4
EndChar
StartChar: tilde.alt
Encoding: 1114116 -1 324
Width: 896
VWidth: 0
Flags: W
HStem: 510 120<551.481 721.817> 778 120<175.431 343.519>
VStem: 7 128<571 716.209> 761 128<691.792 838>
LayerCount: 5
Back
SplineSet
71 120 m 5
 71.1459541014 128.15266052 71.2134470786 136.304168145 71.2134470786 144.454706339 c 4
 71.2134470786 244.023238465 60.9947514183 343.202145057 60.9947514183 442.968654142 c 4
 60.9947514183 503.24820066 67.5700297229 565.45682023 97.2040697532 617.873187279 c 4
 112.264458724 644.511839159 133.281547918 667.996068395 159.102250548 684.419356911 c 4
 185.055249286 700.926792522 215.574349998 710.000761377 246.487012988 710.000761377 c 4
 288.229402056 710.000761377 328.870414889 693.227908662 362.065351849 667.905045022 c 4
 395.389371975 642.483709876 421.75947532 609.240247958 447.622517935 576.257864407 c 4
 473.485560553 543.275480854 499.807390049 510.001570636 533.068682494 484.498217459 c 4
 566.38496147 458.952702934 607.133659708 442.023458248 649.175837233 441.999901476 c 4
 679.786693882 441.999901476 710.30296748 450.956604594 736.18984372 467.294184502 c 4
 762.126286803 483.663046759 783.264096953 507.13895274 798.424887991 533.799581886 c 4
 828.39110138 586.495915478 835.002761576 649.172564972 835.002761576 709.842419138 c 4
 835.002761576 809.780138478 824.812674363 909.234099349 824.812674363 1009.01891932 c 4
 824.812674363 1016.67835448 824.8720918 1024.33866377 825 1032 c 5
 71 120 l 5
  Spiro
    71 120 v
    61 440 o
    246 710 o
    649 442 o
    835 712 o
    825 1032 v
    0 0 z
  EndSpiro
EndSplineSet
Fore
SplineSet
135 571 m 5
 7 571 l 5
 7 635 13 707 51 774 c 4
 87 838 159 898 256 898 c 4
 470.784119107 898 504.047146402 630 639 630 c 4
 683 630 714 658 732 690 c 4
 754 728 761 781 761 838 c 5
 889 838 l 5
 889 774 883 701 845 634 c 4
 809 570 735 510 639 510 c 4
 424.215880893 510 390.952853598 778 256 778 c 4
 212 778 182 750 164 718 c 4
 142 680 135 628 135 571 c 5
EndSplineSet
Layer: 2
Layer: 3
Layer: 4
EndChar
